<svg xmlns="http://www.w3.org/2000/svg" xmlns:xlink="http://www.w3.org/1999/xlink" width="209" height="235" fill="none" xmlns:v="https://vecta.io/nano"><path d="M85.273 76.508l4.026-2.239-4.026 2.239z" fill="#2479d1"/><g filter="url(#A)"><use xlink:href="#G" fill="#4497fa"/><use xlink:href="#G" fill="url(#C)" fill-opacity=".38"/><use xlink:href="#G" fill="url(#D)" fill-opacity=".58"/></g><path d="M93.978 71.96l-4.68 2.308c1.925-.96 4.719-2.251 9.545-4.402-1.639.651-3.26 1.351-4.865 2.093z" fill="#2479d1"/><g filter="url(#B)"><use xlink:href="#H" fill="#4497fa"/><use xlink:href="#H" fill="url(#E)" fill-opacity=".38"/><use xlink:href="#H" fill="url(#F)" fill-opacity=".58"/></g><defs><filter id="A" x=".338" y="-1.314" width="208.391" height="235.717" filterUnits="userSpaceOnUse" color-interpolation-filters="sRGB"><feFlood flood-opacity="0"/><feBlend in="SourceGraphic" result="B"/><feColorMatrix in="SourceAlpha" values="0 0 0 0 0 0 0 0 0 0 0 0 0 0 0 0 0 0 127 0" result="C"/><feOffset dy="-1.54982"/><feGaussianBlur stdDeviation="12.011"/><feComposite in2="C" operator="arithmetic" k2="-1" k3="1"/><feColorMatrix values="0 0 0 0 0.14902 0 0 0 0 0.415686 0 0 0 0 0.737255 0 0 0 1 0"/><feBlend in2="B"/></filter><filter id="B" x="43.593" y="15.757" width="27.044" height="40.338" filterUnits="userSpaceOnUse" color-interpolation-filters="sRGB"><feFlood flood-opacity="0"/><feBlend in="SourceGraphic" result="B"/><feColorMatrix in="SourceAlpha" values="0 0 0 0 0 0 0 0 0 0 0 0 0 0 0 0 0 0 127 0" result="C"/><feOffset dy="-1.54982"/><feGaussianBlur stdDeviation="12.011"/><feComposite in2="C" operator="arithmetic" k2="-1" k3="1"/><feColorMatrix values="0 0 0 0 0.14902 0 0 0 0 0.415686 0 0 0 0 0.737255 0 0 0 1 0"/><feBlend in2="B"/></filter><linearGradient id="C" x1="104.534" y1="0.236" x2="104.534" y2="234.403" gradientUnits="userSpaceOnUse"><stop stop-color="#153a66"/><stop offset="1" stop-color="#153a66" stop-opacity="0"/></linearGradient><radialGradient id="D" cx="0" cy="0" r="1" gradientUnits="userSpaceOnUse" gradientTransform="matrix(55.167251651259996,117.08304909869128,-109.16769257416009,51.4376898687497,49.3664,117.32)"><stop stop-color="#fff"/><stop offset="1" stop-color="#fff" stop-opacity="0"/></radialGradient><linearGradient id="E" x1="57.115" y1="17.307" x2="57.115" y2="56.095" gradientUnits="userSpaceOnUse"><stop stop-color="#153a66"/><stop offset="1" stop-color="#153a66" stop-opacity="0"/></linearGradient><radialGradient id="F" cx="0" cy="0" r="1" gradientUnits="userSpaceOnUse" gradientTransform="matrix(7.159376087512318,19.3940368909507,-15.236288901965223,5.624528974576569,49.9557,36.7009)"><stop stop-color="#fff"/><stop offset="1" stop-color="#fff" stop-opacity="0"/></radialGradient><path id="G" d="M195.268 95.771l8.441-.624c1.654-.109 3.324-.109 5.02-.448-.443-.797-1.088-1.394-1.644-2.045l-8.533-9.894-6.355-7.383c-.367-.424-.228-.579.225-.712l7.702-2.511 4.452-1.763c-.858-.742-1.751-1.194-2.609-1.684l-8.833-4.674c-3.439-1.763-6.921-3.444-10.305-5.32-.453-.252-.483-.424-.1-.742l4.339-3.644 5.114-4.268c-.742-.221-1.377-.194-1.982-.255l-10.229-.948-7.967-.76c-2.602-.273-5.202-.585-7.814-.754-.246-.018-.566-.027-.669-.245-.103-.212.167-.385.307-.564l6.243-7.958 1.991-2.59-3.199.542-12.868 2.202-9.891 1.721c-.967.17-1.928.373-2.898.5-.83.106-.377-.47-.289-.718l2.333-6.544 1.56-4.402c-1.268.203-2.305.606-3.315 1.045l-10.034 4.462-12.284 5.738c-.359.167-.788.312-1.083.082-.322-.252-.137-.691-.051-1.06.577-2.526.976-5.074.976-7.679 0-.706-.183-.751-.754-.436-3.078 1.69-6.076 3.508-9.055 5.359-4.887 3.035-9.813 6.007-15.061 8.389l-1.377.609c2.369-2.775 4.725-5.565 6.835-8.525 2.15-3.017 3.929-6.34 5.522-9.694 2.585-5.447 3.944-11.23 3.804-17.307-.082-3.472-.87-6.792-2.101-10.03-.092.233-.125.463-.128.697-.073 5.901-1.733 11.406-4.455 16.58-2.28 4.335-5.296 8.195-8.589 11.815-4.512 4.953-9.462 9.464-14.772 13.538-3.783 2.905-7.781 5.547-11.783 8.155-4.619 3.011-9.463 5.629-14.683 7.477-3.326 1.178-6.714 1.921-10.277 1.345-.839-.136-1.691-.224-2.554-.336-.325.788-.578 1.581-.967 2.302-2.238 4.144-5.206 7.743-8.62 10.96-2.354 2.215-4.856 4.272-7.319 6.365-.733.624-.967 1.245-.76 2.236.675 3.19 1.262 6.404 1.785 9.624.097.594-.03 1.478-.42 1.86l-10.937 10.542c-.964.955-1.876 1.121-3.053.752-.414-.131-.839-.218-1.262-.303l-6.768-1.363c-.663-.134-1.043.054-1.277.763-1.049 3.157-1.779 6.344-1.636 9.709.164 3.826 1.304 7.371 3.254 10.6 2.101 3.481 4.99 6.31 8.414 8.522 1.462.948 3.092 1.642 4.646 2.451-2.566-4.02-3.047-8.177-1.295-12.388 1.201-2.884 2.655-5.616 6.583-5.974 4.138-.375 8.222-1.369 12.333-2.078l15.967-2.741c.462-.082.9-.294 1.283-.425-.967-.754-1.937-1.372-2.733-2.166-1.073-1.069-1.374-2.968-.602-3.977.666-.867 1.447-1.781 2.387-2.275 3.582-1.869 7.425-2.239 11.339-1.291 2.147.521 3.393 2.063 3.174 3.778-.137 1.051-.371 2.184-.906 3.075-2.016 3.347-4.16 6.622-6.285 9.903l-6.638 10.2c-1.396 2.284-2.509 4.741-3.822 7.258-2.268-1.378-4.658-2.708-6.911-4.241-2.247-1.533-4.357-3.269-6.641-5.001.477 6.092 2.493 11.457 5.869 16.346l-.149.243-17.304-4.963c.976 1.609 1.663 3.006 2.591 4.217 2.329 3.039 4.664 6.086 7.194 8.958 2.341 2.66 4.923 5.114 7.45 7.607.252.252.955.339 1.286.176l12.233-6.189c1.849-.958 3.661-1.991 5.449-3.06a1.49 1.49 0 0 0 .62-1.1c-.067-6.249 1.353-12.12 4.701-17.425 1.657-2.62 3.412-5.253 5.522-7.507 2.81-3.005 5.929-5.74 9.067-8.415 2.515-2.142 5.227-4.063 7.909-5.998 2.259-1.63 4.664-3.063 6.89-4.732 1.809-1.361 3.214-3.084 3.655-5.426.268-1.424.122-1.848-1.28-1.999l-16.31-1.609c-3.013-.258-4.518-1.481-4.816-4.471-.456-4.523 4.497-10.494 8.216-12.742l2.566-1.578c1.222-.751 2.253-1.357 4.041-2.248 1.536-.809 3.099-1.578 4.68-2.308 1.606-.742 3.226-1.442 4.865-2.093 4.707-1.881 9.548-3.372 14.562-4.308 2.098-.394 4.226-.627 6.361-.824 4.385-.4 8.775-.46 13.169-.433 5.978.036 11.71 1.275 17.241 3.49 2.827 1.13 5.491 2.566 7.914 4.405a27.32 27.32 0 0 1 8.684 11.045c1.287 2.957 2.168 6.013 2.509 9.2.383 3.632-.021 7.213-1.082 10.718-1.135 3.747-2.965 7.153-5.075 10.427-2.047 3.184-4.379 6.144-6.9 8.967a89.52 89.52 0 0 1-6.275 6.335c-3.269 2.993-6.717 5.78-10.29 8.412-5.184 3.824-10.612 7.265-16.167 10.503-3.774 2.2-7.629 4.251-11.515 6.247a371.45 371.45 0 0 1-10.722 5.298l-13.725 6.629c-4.543 2.323-8.921 4.929-13.19 7.722-3.272 2.139-6.477 4.377-9.529 6.813-2.697 2.154-5.315 4.405-7.811 6.795-3.649 3.493-7.024 7.213-10.043 11.251-3.032 4.059-5.425 8.482-7.587 13.048-1.469 3.102-2.122 6.361-2.566 9.715-.231 1.766-.42 5.28-.438 7.068-.036 3.038 1.253 6.013 1.253 6.013s1.353-2.802 2.536-6.062c1.727-4.747 3.773-9.603 6.486-13.865 2.846-4.472 6.27-8.465 10.147-12.06 3.436-3.187 7.1-6.111 10.907-8.855 3.789-2.73 7.726-5.232 11.734-7.622 2.274-1.358 4.619-2.603 6.948-3.866 3.357-1.821 6.778-3.526 10.229-5.153l14.665-6.734 7.438-3.408 11.758-5.638a382.93 382.93 0 0 0 19.53-10.524c5.379-3.105 10.618-6.426 15.55-10.2a94.75 94.75 0 0 0 6.145-5.132c.727-.66 1.49-1.285 2.229-1.93.362-.318.696-.382 1.016.052 1.334 1.814 3.274 2.972 4.889 4.486.219.206.42.43.617.658.49.557.684.554 1.177-.006.563-.637.742-1.418.891-2.212.648-3.493 1.77-6.855 2.806-10.242l2.457-8.24c.399-1.424.77-1.951 2.752-1.5 2.323.527 4.461 1.609 6.726 2.321.891.278 1.797.484 2.706.693.481.109.703.04.541-.566l-1.754-6.865-3.457-13.429c-.174-.682-.362-1.36-.554-2.036-.136-.485 0-.66.535-.697zM57.782 77.495c-.791 1.815-1.897 3.553-3.156 5.086-1.472 1.793-3.138 3.472-4.935 4.944-2.864 2.345-5.902 4.489-9.493 5.656-1.639.533-3.752.842-3.922-.17-.608-3.584.331-6.634 3.263-8.885a283.82 283.82 0 0 1 9.365-6.907l12.895-8.922c-.35 2.217-3.381 7.734-4.017 9.197z"/><path id="H" d="M69.325 17.31c2.034 6.395 1.523 12.487-.298 18.492-.9 2.978-2.077 5.889-3.366 8.725-.961 2.111-2.29 4.053-3.485 6.056-.198.33-.496.633-.815.848-4.096 2.745-8.66 4.229-13.537 4.653-1.11.097-2.308-.433-3.415-.824-.803-.282-1.152-.936-.401-1.657 1.003-.963 2.01-1.936 3.111-2.784 3.147-2.417 5.978-5.162 8.511-8.195 1.931-2.311 3.798-4.687 5.54-7.143 3.673-5.174 6.352-10.827 7.836-17.016.073-.306.164-.606.313-1.157l.006.003z"/></defs></svg>