<svg xmlns="http://www.w3.org/2000/svg" xmlns:xlink="http://www.w3.org/1999/xlink" width="198" height="199" fill="none" xmlns:v="https://vecta.io/nano"><g fill-rule="evenodd"><use xlink:href="#C" fill="#4497fa"/><use xlink:href="#C" fill="url(#A)" fill-opacity=".38"/><use xlink:href="#C" fill="url(#B)" fill-opacity=".58"/><path d="M106.994 86.39a2 2 0 0 1-.896-1.668V9.205a7 7 0 0 0-7-7h-.041-.021H99c-53.572 0-97 43.428-97 97s43.428 97 97 97 97-43.428 97-97a7 7 0 1 0-14 0c0 45.84-37.16 83-83 83s-83-37.16-83-83C16 56.447 48.331 21.243 89.88 16.7a2 2 0 0 1 2.217 1.988v21.883a2 2 0 0 1-1.677 1.974C63.43 46.96 42.049 71.719 42.049 99.45c0 30.849 26.288 56.436 56.952 56.436 30.72 0 56.794-25.802 56.794-56.594a7 7 0 1 0-14 0c0 22.987-19.732 42.594-42.794 42.594-23.121 0-42.952-19.507-42.952-42.436 0-19.956 14.876-37.842 33.57-42.453a2 2 0 0 1 2.479 1.942v25.657a2 2 0 0 1-.92 1.683c-4.026 2.583-6.687 7.093-6.687 12.224 0 8.014 6.497 14.511 14.511 14.511s14.511-6.497 14.511-14.511c0-5.058-2.586-9.513-6.518-12.113zm-16.896-1.794c-4.576 2.935-7.607 8.067-7.607 13.907 0 9.119 7.392 16.511 16.511 16.511s16.511-7.392 16.511-16.511c0-5.757-2.947-10.827-7.414-13.781V9.205c0-4.971-4.03-9-9-9h-.053H99c-54.676 0-99 44.324-99 99s44.324 99 99 99 99-44.324 99-99a9 9 0 0 0-9-9c-4.97 0-9 4.029-9 9 0 44.735-36.265 81-81 81s-81-36.265-81-81c0-41.038 30.518-74.948 70.098-80.273l2-.244v21.883C62.149 45.143 40.049 70.73 40.049 99.45c0 31.981 27.212 58.436 58.952 58.436 31.814 0 58.794-26.686 58.794-58.594 0-4.971-4.03-9-9-9a9 9 0 0 0-9 9c0 21.873-18.827 40.594-40.794 40.594-22.041 0-40.952-18.637-40.952-40.436 0-18.28 13.159-34.819 30.049-39.96a38.55 38.55 0 0 1 2-.551v25.657z" fill="#7db8ff"/></g><defs><linearGradient id="A" x1="99" y1="0.205" x2="99" y2="198.205" gradientUnits="userSpaceOnUse"><stop stop-color="#153a66"/><stop offset="1" stop-color="#153a66" stop-opacity="0"/></linearGradient><radialGradient id="B" cx="0" cy="0" r="1" gradientUnits="userSpaceOnUse" gradientTransform="matrix(52.41663385850392,98.99988330772689,-98.99988330772689,52.41663385850392,46.5835,99.2048)"><stop stop-color="#fff"/><stop offset="1" stop-color="#fff" stop-opacity="0"/></radialGradient><path id="C" d="M99.098.205c4.97 0 9 4.029 9 9v75.517c4.467 2.955 7.414 8.024 7.414 13.781 0 9.119-7.392 16.511-16.511 16.511S82.49 107.622 82.49 98.503c0-5.84 3.032-10.972 7.607-13.907V58.939c-17.84 4.4-32.049 21.515-32.049 40.511 0 21.799 18.911 40.436 40.952 40.436 21.967 0 40.794-18.721 40.794-40.594a9 9 0 0 1 9-9c4.97 0 9 4.029 9 9 0 31.908-26.98 58.594-58.794 58.594-31.74 0-58.952-26.455-58.952-58.436 0-28.72 22.1-54.307 50.049-58.878V18.689C49.551 23.121 18 57.478 18 99.205c0 44.735 36.265 81 81 81s81-36.265 81-81c0-4.971 4.03-9 9-9a9 9 0 0 1 9 9c0 54.676-44.324 99-99 99s-99-44.324-99-99 44.324-99 99-99h.045.053z"/></defs></svg>