<svg xmlns="http://www.w3.org/2000/svg" xmlns:xlink="http://www.w3.org/1999/xlink" width="210" height="211" fill="none" xmlns:v="https://vecta.io/nano"><g fill-rule="evenodd"><use xlink:href="#C" fill="#4497fa"/><use xlink:href="#C" fill="url(#A)" fill-opacity=".38"/><use xlink:href="#C" fill="url(#B)" fill-opacity=".58"/><path d="M112.817 19.514a2 2 0 0 1-1.818-1.992V8.203a6 6 0 0 0-6-6 6 6 0 0 0-6 6v9.298a2 2 0 0 1-1.824 1.992c-41.4 3.667-74.389 36.619-78.112 78.003a2 2 0 0 1-1.992 1.821H8.079a6 6 0 0 0-6 6 6 6 0 0 0 6 6h8.993a2 2 0 0 1 1.992 1.821c3.722 41.385 36.711 74.339 78.112 78.006a2 2 0 0 1 1.824 1.992v8.908a6 6 0 0 0 12 0v-8.93a2 2 0 0 1 1.818-1.992c41.29-3.77 74.161-36.677 77.876-77.982a2 2 0 0 1 1.992-1.821h9.235a6 6 0 1 0 0-12h-9.235a2 2 0 0 1-1.992-1.821c-3.715-41.305-36.586-74.212-77.876-77.983zM31.663 98.651a2 2 0 0 1-.498-1.554c3.799-34.435 31.166-61.766 65.619-65.507a2 2 0 0 1 2.216 1.988V69a6 6 0 0 0 12 0V33.605a2 2 0 0 1 2.223-1.988c34.336 3.845 61.582 31.128 65.37 65.481.063.565-.118 1.13-.498 1.554a2 2 0 0 1-1.49.666h-35.481a6 6 0 1 0 0 12h35.481a2 2 0 0 1 1.49.665c.38.424.561.989.498 1.554-3.788 34.353-31.034 61.636-65.37 65.481a2 2 0 0 1-2.223-1.988v-35.784a6 6 0 0 0-12 0v35.811a2 2 0 0 1-2.216 1.988c-34.454-3.741-61.822-31.073-65.619-65.51a2 2 0 0 1 1.988-2.219h35.724a6 6 0 0 0 0-12H33.153a2 2 0 0 1-1.49-.665zm81.336-81.128V8.203a8 8 0 0 0-8-8 8 8 0 0 0-8 8v9.298c-42.364 3.752-76.117 37.468-79.927 79.816H8.079a8 8 0 0 0-8 8 8 8 0 0 0 8 8h8.993c3.808 42.349 37.562 76.067 79.927 79.819v8.908a8 8 0 0 0 16 0v-8.93c42.252-3.858 75.884-37.528 79.686-79.795h9.235a8 8 0 1 0 0-16h-9.235c-3.802-42.268-37.434-75.937-79.686-79.795zM33.153 97.316h35.724a8 8 0 0 1 0 16H33.152l.249 2c4.421 31.895 29.687 57.127 61.598 61.496l2 .245v-35.811a8 8 0 0 1 16 0v35.784l2-.252c31.797-4.463 56.947-29.646 61.357-61.46l.248-2h-35.481a8 8 0 1 1 0-16h35.481l-.248-2c-4.41-31.814-29.56-56.998-61.357-61.46l-2-.252V69a8 8 0 0 1-16 0V33.579l-2 .245c-31.911 4.369-57.176 29.599-61.598 61.492l-.249 2zm71.826 2.002a6 6 0 1 0 0 12h.089c3.313 0 6-2.687 6-6a6 6 0 0 0-6-6h-.089zm0-2a8 8 0 1 0 0 16h.089a8 8 0 1 0 0-16h-.089z" fill="#7db8ff"/></g><defs><linearGradient id="A" x1="105" y1="0.203" x2="105" y2="210.043" gradientUnits="userSpaceOnUse"><stop stop-color="#153a66"/><stop offset="1" stop-color="#153a66" stop-opacity="0"/></linearGradient><radialGradient id="B" cx="0" cy="0" r="1" gradientUnits="userSpaceOnUse" gradientTransform="matrix(55.551244019351245,104.92025661855051,-104.92025661855051,55.551244019351245,49.4484,105.123)"><stop stop-color="#fff"/><stop offset="1" stop-color="#fff" stop-opacity="0"/></radialGradient><path id="C" d="M104.999.203a8 8 0 0 1 8 8v9.319c42.252 3.859 75.884 37.528 79.686 79.796h9.235a8 8 0 1 1 0 16h-9.235c-3.802 42.267-37.434 75.937-79.686 79.795v8.93a8 8 0 0 1-16 0v-8.908c-42.365-3.752-76.119-37.47-79.927-79.819H8.079a8 8 0 0 1-8-8 8 8 0 0 1 8-8h8.993c3.81-42.347 37.563-76.064 79.927-79.816V8.203a8 8 0 0 1 8-8zm-8 33.376c-33.52 3.64-60.151 30.234-63.847 63.738h35.724a8 8 0 0 1 0 16H33.152c3.694 33.505 30.326 60.101 63.847 63.741v-35.811a8 8 0 0 1 16 0v35.784c33.407-3.741 59.919-30.289 63.605-63.712h-35.481a8 8 0 1 1 0-16h35.481c-3.686-33.424-30.198-59.971-63.605-63.713V69a8 8 0 0 1-16 0V33.579zm-.021 71.739a8 8 0 0 1 8-8h.089a8 8 0 1 1 0 16h-.089a8 8 0 0 1-8-8z"/></defs></svg>