<svg xmlns="http://www.w3.org/2000/svg" xmlns:xlink="http://www.w3.org/1999/xlink" width="212" height="211" fill="none" xmlns:v="https://vecta.io/nano"><g filter="url(#A)"><use xlink:href="#E" fill-rule="evenodd" fill="#4497fa"/><use xlink:href="#E" fill-rule="evenodd" fill="url(#C)" fill-opacity=".38"/><use xlink:href="#E" fill-rule="evenodd" fill="url(#D)" fill-opacity=".58"/></g><g filter="url(#B)"><path d="M137.716 188.129l44.309-44.309m-44.309 0l44.309 44.309" stroke="#b4d6ff" stroke-width="7.334" stroke-linecap="round" stroke-linejoin="round"/></g><defs><filter id="A" x=".899" y="-.881" width="210.319" height="211.246" filterUnits="userSpaceOnUse" color-interpolation-filters="sRGB"><feFlood flood-opacity="0"/><feBlend in="SourceGraphic" result="B"/><feColorMatrix in="SourceAlpha" values="0 0 0 0 0 0 0 0 0 0 0 0 0 0 0 0 0 0 127 0" result="C"/><feOffset dy="-0.927331"/><feGaussianBlur stdDeviation="7.187"/><feComposite in2="C" operator="arithmetic" k2="-1" k3="1"/><feColorMatrix values="0 0 0 0 0.14902 0 0 0 0 0.415686 0 0 0 0 0.737255 0 0 0 1 0"/><feBlend in2="B"/></filter><filter id="B" x="129.049" y="139.153" width="61.643" height="61.643" filterUnits="userSpaceOnUse" color-interpolation-filters="sRGB"><feFlood flood-opacity="0" result="A"/><feColorMatrix in="SourceAlpha" values="0 0 0 0 0 0 0 0 0 0 0 0 0 0 0 0 0 0 127 0" result="B"/><feOffset dy="4"/><feGaussianBlur stdDeviation="2.5"/><feComposite in2="B" operator="out"/><feColorMatrix values="0 0 0 0 0 0 0 0 0 0 0 0 0 0 0 0 0 0 0.25 0"/><feBlend in2="A"/><feBlend in="SourceGraphic"/></filter><linearGradient id="C" x1="106.058" y1="0.046" x2="106.058" y2="210.365" gradientUnits="userSpaceOnUse"><stop stop-color="#153a66"/><stop offset="1" stop-color="#153a66" stop-opacity="0"/></linearGradient><radialGradient id="D" cx="0" cy="0" r="1" gradientUnits="userSpaceOnUse" gradientTransform="matrix(55.67805090897502,105.15975821091253,-105.15975821091253,55.67805090897502,50.3801,105.205)"><stop stop-color="#fff"/><stop offset="1" stop-color="#fff" stop-opacity="0"/></radialGradient><path id="E" d="M106.058 210.365c58.078 0 105.159-47.082 105.159-105.159S164.136.046 106.058.046.899 47.128.899 105.206 47.98 210.365 106.058 210.365zm50.694-128.937a9.86 9.86 0 0 0-15.946-11.597l-45.794 62.966-24.704-24.704a9.86 9.86 0 0 0-13.942 13.942l32.862 32.863a9.86 9.86 0 0 0 14.944-1.173l52.58-72.297z"/></defs></svg>