<svg xmlns="http://www.w3.org/2000/svg" xmlns:xlink="http://www.w3.org/1999/xlink" width="144" height="193" fill="none" xmlns:v="https://vecta.io/nano"><g fill-rule="evenodd"><use xlink:href="#C" fill="#4497fa"/><use xlink:href="#C" fill="url(#A)" fill-opacity=".38"/><use xlink:href="#C" fill="url(#B)" fill-opacity=".58"/><path d="M24 2.409c-12.15 0-22 9.85-22 22v144c0 12.15 9.85 22 22 22h96c12.15 0 22-9.85 22-22V65.379a22 22 0 0 0-6.444-15.556L94.586 8.852A22 22 0 0 0 79.03 2.409H24zm12 104c7.732 0 14 6.268 14 14v36c0 7.732-6.268 14-14 14s-14-6.268-14-14v-36c0-7.732 6.268-14 14-14zm36-24c7.732 0 14 6.268 14 14v60c0 7.732-6.268 14-14 14s-14-6.268-14-14v-60c0-7.732 6.268-14 14-14zm36-24c7.732 0 14 6.268 14 14v84c0 7.732-6.268 14-14 14s-14-6.268-14-14v-84c0-7.732 6.268-14 14-14zm-108-34c0-13.255 10.745-24 24-24h55.03A24 24 0 0 1 96 7.438l40.971 40.971A24 24 0 0 1 144 65.379v103.03c0 13.255-10.745 24-24 24H24c-13.255 0-24-10.745-24-24v-144zm36 84c6.627 0 12 5.372 12 12v36c0 6.627-5.373 12-12 12s-12-5.373-12-12v-36c0-6.628 5.373-12 12-12zm48-12c0-6.627-5.373-12-12-12s-12 5.373-12 12v60c0 6.627 5.373 12 12 12s12-5.373 12-12v-60zm24-36c6.628 0 12 5.373 12 12v84c0 6.627-5.372 12-12 12s-12-5.373-12-12v-84c0-6.627 5.373-12 12-12z" fill="#7db8ff"/></g><defs><linearGradient id="A" x1="72" y1="0.409" x2="72" y2="192.409" gradientUnits="userSpaceOnUse"><stop stop-color="#153a66"/><stop offset="1" stop-color="#153a66" stop-opacity="0"/></linearGradient><radialGradient id="B" cx="0" cy="0" r="1" gradientUnits="userSpaceOnUse" gradientTransform="matrix(38.121185572103215,96.00006497173463,-79.62757974007512,31.619746766031813,33.8789,96.4087)"><stop stop-color="#fff"/><stop offset="1" stop-color="#fff" stop-opacity="0"/></radialGradient><path id="C" d="M24 .409c-13.255 0-24 10.745-24 24v144c0 13.255 10.745 24 24 24h96c13.255 0 24-10.745 24-24V65.379a24 24 0 0 0-7.029-16.97L96 7.438A24 24 0 0 0 79.03.409H24zm24 120c0-6.628-5.373-12-12-12s-12 5.372-12 12v36c0 6.627 5.373 12 12 12s12-5.373 12-12v-36zm24-36c6.627 0 12 5.373 12 12v60c0 6.627-5.373 12-12 12s-12-5.373-12-12v-60c0-6.627 5.373-12 12-12zm48-12c0-6.627-5.372-12-12-12s-12 5.373-12 12v84c0 6.627 5.373 12 12 12s12-5.373 12-12v-84z"/></defs></svg>