<svg xmlns="http://www.w3.org/2000/svg" xmlns:xlink="http://www.w3.org/1999/xlink" width="210" height="211" fill="none" xmlns:v="https://vecta.io/nano"><g fill-rule="evenodd"><use xlink:href="#C" fill="#4497fa"/><use xlink:href="#C" fill="url(#A)" fill-opacity=".38"/><use xlink:href="#C" fill="url(#B)" fill-opacity=".58"/><path d="M50.5 187.502a2 2 0 0 1 2-2h15a5.5 5.5 0 0 0 5.5-5.5v-15a2 2 0 0 1 2-2h15a5.5 5.5 0 0 0 3.889-1.61l26.58-26.58c2.457-2.458 6.442-3.522 10.807-2.768 3.651.63 7.401.958 11.224.958 36.174 0 65.5-29.325 65.5-65.5s-29.326-65.5-65.5-65.5S77 31.328 77 67.502c0 3.823.328 7.573.959 11.224.754 4.365-.31 8.35-2.768 10.807l-64.99 64.99A28 28 0 0 0 2 174.322v28.18a5.5 5.5 0 0 0 5.5 5.5H45a5.5 5.5 0 0 0 5.5-5.5v-15zm2 15a7.5 7.5 0 0 1-7.5 7.5H7.5a7.5 7.5 0 0 1-7.5-7.5v-28.18a30 30 0 0 1 8.787-21.213l64.99-64.99c1.891-1.891 2.883-5.164 2.211-9.053A67.88 67.88 0 0 1 75 67.502c0-37.279 30.22-67.5 67.5-67.5s67.5 30.221 67.5 67.5-30.221 67.5-67.5 67.5a67.78 67.78 0 0 1-11.564-.988c-3.889-.671-7.162.321-9.053 2.212l-26.58 26.58A7.5 7.5 0 0 1 90 165.002H75v15a7.5 7.5 0 0 1-7.5 7.5h-15v15zm80.5-165a9.5 9.5 0 0 1 9.5-9.5c21.815 0 39.5 17.685 39.5 39.5 0 5.247-4.254 9.5-9.5 9.5a9.5 9.5 0 0 1-9.5-9.5c0-11.322-9.179-20.5-20.5-20.5a9.5 9.5 0 0 1-9.5-9.5zm2 0a7.5 7.5 0 0 1 7.5-7.5c20.71 0 37.5 16.789 37.5 37.5a7.5 7.5 0 1 1-15 0c0-12.426-10.074-22.5-22.5-22.5a7.5 7.5 0 0 1-7.5-7.5z" fill="#7db8ff"/></g><defs><linearGradient id="A" x1="105" y1="0.002" x2="105" y2="210.002" gradientUnits="userSpaceOnUse"><stop stop-color="#153a66"/><stop offset="1" stop-color="#153a66" stop-opacity="0"/></linearGradient><radialGradient id="B" cx="0" cy="0" r="1" gradientUnits="userSpaceOnUse" gradientTransform="matrix(55.593357008525196,104.99979589276668,-104.99979589276668,55.593357008525196,49.4062,105.002)"><stop stop-color="#fff"/><stop offset="1" stop-color="#fff" stop-opacity="0"/></radialGradient><path id="C" d="M142.5.002c-37.28 0-67.5 30.221-67.5 67.5a67.88 67.88 0 0 0 .988 11.564c.672 3.889-.32 7.162-2.211 9.053l-64.99 64.99A30 30 0 0 0 0 174.322v28.18a7.5 7.5 0 0 0 7.5 7.5H45a7.5 7.5 0 0 0 7.5-7.5v-15h15a7.5 7.5 0 0 0 7.5-7.5v-15h15a7.5 7.5 0 0 0 5.303-2.196l26.58-26.58c1.891-1.891 5.164-2.883 9.053-2.212a67.78 67.78 0 0 0 11.564.988c37.279 0 67.5-30.22 67.5-67.5S179.779.002 142.5.002zm0 30a7.5 7.5 0 1 0 0 15c12.426 0 22.5 10.074 22.5 22.5a7.5 7.5 0 1 0 15 0c0-20.711-16.79-37.5-37.5-37.5z"/></defs></svg>